<?xml version="1.0" encoding="UTF-8"?>
<svg id="Layer_2" data-name="Layer 2" xmlns="http://www.w3.org/2000/svg" viewBox="0 0 18.39 18.76">
  <defs>
    <style>
      .cls-1 {
        fill: #fff;
      }

      .cls-2 {
        fill: #002e6d;
      }

      .cls-3 {
        stroke-width: 0px;
      }

      .cls-3, .cls-4 {
        fill: none;
        stroke: #fff;
        stroke-linecap: round;
        stroke-linejoin: round;
      }

      .cls-4 {
        stroke-width: 0px;
      }
    </style>
  </defs>
  <g id="Layer_1-2" data-name="Layer 1">
    <polygon class="cls-1" points="6.35 15.99 8.43 11.37 4.06 13.61 3.02 9.67 7.86 9.29 3.88 6.37 6.6 3.53 9.33 7.77 9.69 2.7 13.34 3.72 11.26 8.3 15.64 6.11 16.64 10.01 11.8 10.39 15.82 13.31 13.06 16.15 10.33 11.94 9.97 17.02 6.35 15.99"/>
    <polygon class="cls-4" points="6.35 15.99 8.43 11.37 4.06 13.61 3.02 9.67 7.86 9.29 3.88 6.37 6.6 3.53 9.33 7.77 9.69 2.7 13.34 3.72 11.26 8.3 15.64 6.11 16.64 10.01 11.8 10.39 15.82 13.31 13.06 16.15 10.33 11.94 9.97 17.02 6.35 15.99"/>
    <polygon class="cls-2" points="4.13 14.09 6.21 9.47 1.83 11.7 .79 7.76 5.63 7.39 1.65 4.47 4.38 1.63 7.11 5.87 7.46 .79 11.12 1.82 9.04 6.4 13.42 4.2 14.42 8.11 9.58 8.48 13.6 11.4 10.83 14.24 8.11 10.04 7.75 15.11 4.13 14.09"/>
    <polygon class="cls-3" points="4.13 14.09 6.21 9.47 1.83 11.7 .79 7.76 5.63 7.39 1.65 4.47 4.38 1.63 7.11 5.87 7.46 .79 11.12 1.82 9.04 6.4 13.42 4.2 14.42 8.11 9.58 8.48 13.6 11.4 10.83 14.24 8.11 10.04 7.75 15.11 4.13 14.09"/>
    <polygon class="cls-2" points="4.13 14.09 6.21 9.47 1.83 11.7 .79 7.76 5.63 7.39 1.65 4.47 4.38 1.63 7.11 5.87 7.46 .79 11.12 1.82 9.04 6.4 13.42 4.2 14.42 8.11 9.58 8.48 13.6 11.4 10.83 14.24 8.11 10.04 7.75 15.11 4.13 14.09"/>
  </g>
</svg>